<svg width="21" height="21" viewBox="0 0 21 21" fill="none" xmlns="http://www.w3.org/2000/svg">
<path d="M10.2748 17.5515C11.2598 17.5515 12.235 17.3575 13.145 16.9806C14.0549 16.6037 14.8817 16.0513 15.5781 15.3548C16.2746 14.6584 16.827 13.8316 17.2039 12.9216C17.5808 12.0117 17.7748 11.0364 17.7748 10.0515C17.7748 9.0666 17.5808 8.09133 17.2039 7.18139C16.827 6.27145 16.2746 5.44465 15.5781 4.74821C14.8817 4.05177 14.0549 3.49933 13.145 3.12242C12.235 2.74551 11.2598 2.55151 10.2748 2.55151C8.28572 2.55151 6.37806 3.34169 4.97154 4.74821C3.56502 6.15474 2.77484 8.06239 2.77484 10.0515C2.77484 12.0406 3.56502 13.9483 4.97154 15.3548C6.37806 16.7613 8.28572 17.5515 10.2748 17.5515ZM10.2748 18.8015C7.9542 18.8015 5.7286 17.8796 4.08766 16.2387C2.44671 14.5978 1.52484 12.3722 1.52484 10.0515C1.52484 7.73087 2.44671 5.50527 4.08766 3.86433C5.7286 2.22339 7.9542 1.30151 10.2748 1.30151C12.5955 1.30151 14.8211 2.22339 16.462 3.86433C18.103 5.50527 19.0248 7.73087 19.0248 10.0515C19.0248 12.3722 18.103 14.5978 16.462 16.2387C14.8211 17.8796 12.5955 18.8015 10.2748 18.8015Z" fill="#44497C"/>
<path d="M9.64984 5.05151C9.8156 5.05151 9.97457 5.11736 10.0918 5.23457C10.209 5.35178 10.2748 5.51075 10.2748 5.67651V10.6765C10.2748 10.8423 10.209 11.0012 10.0918 11.1185C9.97457 11.2357 9.8156 11.3015 9.64984 11.3015C9.48408 11.3015 9.32511 11.2357 9.2079 11.1185C9.09069 11.0012 9.02484 10.8423 9.02484 10.6765V5.67651C9.02484 5.51075 9.09069 5.35178 9.2079 5.23457C9.32511 5.11736 9.48408 5.05151 9.64984 5.05151Z" fill="#44497C"/>
<path d="M9.64984 10.0515H14.6498C15.0665 10.0515 15.2748 10.2598 15.2748 10.6765C15.2748 11.0932 15.0665 11.3015 14.6498 11.3015H9.64984C9.23317 11.3015 9.02484 11.0932 9.02484 10.6765C9.02484 10.2598 9.23317 10.0515 9.64984 10.0515Z" fill="#44497C"/>
</svg>
