<svg width="21" height="21" viewBox="0 0 21 21" fill="none" xmlns="http://www.w3.org/2000/svg">
<path d="M10.0977 10.75C11.0922 10.75 12.046 10.3549 12.7493 9.65165C13.4526 8.94839 13.8477 7.99456 13.8477 7C13.8477 6.00544 13.4526 5.05161 12.7493 4.34835C12.046 3.64509 11.0922 3.25 10.0977 3.25C9.10309 3.25 8.14927 3.64509 7.44601 4.34835C6.74274 5.05161 6.34766 6.00544 6.34766 7C6.34766 7.99456 6.74274 8.94839 7.44601 9.65165C8.14927 10.3549 9.10309 10.75 10.0977 10.75ZM10.0977 12C8.77157 12 7.4998 11.4732 6.56212 10.5355C5.62444 9.59785 5.09766 8.32608 5.09766 7C5.09766 5.67392 5.62444 4.40215 6.56212 3.46447C7.4998 2.52678 8.77157 2 10.0977 2C11.4237 2 12.6955 2.52678 13.6332 3.46447C14.5709 4.40215 15.0977 5.67392 15.0977 7C15.0977 8.32608 14.5709 9.59785 13.6332 10.5355C12.6955 11.4732 11.4237 12 10.0977 12ZM16.3477 18.25V16.375C16.3477 15.8777 16.1501 15.4008 15.7985 15.0492C15.4469 14.6975 14.9699 14.5 14.4727 14.5H5.72266C5.22538 14.5 4.74846 14.6975 4.39683 15.0492C4.0452 15.4008 3.84766 15.8777 3.84766 16.375V18.25C3.84766 18.4158 3.78181 18.5747 3.6646 18.6919C3.54739 18.8092 3.38842 18.875 3.22266 18.875C3.0569 18.875 2.89792 18.8092 2.78071 18.6919C2.6635 18.5747 2.59766 18.4158 2.59766 18.25V16.375C2.59766 15.5462 2.9269 14.7513 3.51295 14.1653C4.099 13.5792 4.89385 13.25 5.72266 13.25H14.4727C15.3015 13.25 16.0963 13.5792 16.6824 14.1653C17.2684 14.7513 17.5977 15.5462 17.5977 16.375V18.25C17.5977 18.4158 17.5318 18.5747 17.4146 18.6919C17.2974 18.8092 17.1384 18.875 16.9727 18.875C16.8069 18.875 16.6479 18.8092 16.5307 18.6919C16.4135 18.5747 16.3477 18.4158 16.3477 18.25Z" fill="#44497C"/>
</svg>
