<svg width="20" height="21" viewBox="0 0 20 21" fill="none" xmlns="http://www.w3.org/2000/svg">
<path d="M15.625 8.34375C15.625 6.85191 15.0324 5.42117 13.9775 4.36627C12.9226 3.31138 11.4918 2.71875 10 2.71875C8.50816 2.71875 7.07742 3.31138 6.02252 4.36627C4.96763 5.42117 4.375 6.85191 4.375 8.34375C4.375 10.6512 6.22125 13.6587 10 17.2612C13.7788 13.6587 15.625 10.6512 15.625 8.34375ZM10 18.9688C5.41625 14.8025 3.125 11.26 3.125 8.34375C3.125 6.52039 3.84933 4.7717 5.13864 3.48239C6.42795 2.19308 8.17664 1.46875 10 1.46875C11.8234 1.46875 13.572 2.19308 14.8614 3.48239C16.1507 4.7717 16.875 6.52039 16.875 8.34375C16.875 11.26 14.5837 14.8025 10 18.9688Z" fill="#44497C"/>
<path d="M10 10.2188C10.4973 10.2188 10.9742 10.0212 11.3258 9.66958C11.6775 9.31794 11.875 8.84103 11.875 8.34375C11.875 7.84647 11.6775 7.36956 11.3258 7.01792C10.9742 6.66629 10.4973 6.46875 10 6.46875C9.50272 6.46875 9.02581 6.66629 8.67417 7.01792C8.32254 7.36956 8.125 7.84647 8.125 8.34375C8.125 8.84103 8.32254 9.31794 8.67417 9.66958C9.02581 10.0212 9.50272 10.2188 10 10.2188ZM10 11.4688C9.1712 11.4688 8.37634 11.1395 7.79029 10.5535C7.20424 9.96741 6.875 9.17255 6.875 8.34375C6.875 7.51495 7.20424 6.72009 7.79029 6.13404C8.37634 5.54799 9.1712 5.21875 10 5.21875C10.8288 5.21875 11.6237 5.54799 12.2097 6.13404C12.7958 6.72009 13.125 7.51495 13.125 8.34375C13.125 9.17255 12.7958 9.96741 12.2097 10.5535C11.6237 11.1395 10.8288 11.4688 10 11.4688Z" fill="#44497C"/>
</svg>
