<svg width="36" height="35" viewBox="0 0 36 35" fill="none" xmlns="http://www.w3.org/2000/svg">
<path fill-rule="evenodd" clip-rule="evenodd" d="M16.1725 26.875C18.6663 26.875 20.9661 26.0394 22.8079 24.6336L29.7248 31.5519C29.9999 31.8175 30.3682 31.9645 30.7506 31.9612C31.133 31.9579 31.4987 31.8045 31.7691 31.5341C32.0395 31.2637 32.1929 30.898 32.1962 30.5156C32.1995 30.1332 32.0525 29.7648 31.7869 29.4898L24.8686 22.5715C26.3653 20.6095 27.1546 18.199 27.1082 15.7317C27.0618 13.2644 26.1823 10.8854 24.6128 8.98108C23.0433 7.0768 20.8759 5.75924 18.4629 5.2425C16.0499 4.72576 13.5331 5.0402 11.3214 6.13474C9.10967 7.22928 7.3331 9.03958 6.28035 11.2715C5.22759 13.5034 4.96054 16.0257 5.52257 18.4286C6.0846 20.8314 7.44269 22.9736 9.37614 24.507C11.3096 26.0405 13.7048 26.875 16.1725 26.875ZM24.1934 15.9375C24.1934 18.0648 23.3483 20.1049 21.8441 21.6091C20.3399 23.1133 18.2998 23.9583 16.1725 23.9583C14.0453 23.9583 12.0051 23.1133 10.5009 21.6091C8.99674 20.1049 8.15169 18.0648 8.15169 15.9375C8.15169 13.8103 8.99674 11.7701 10.5009 10.2659C12.0051 8.76173 14.0453 7.91668 16.1725 7.91668C18.2998 7.91668 20.3399 8.76173 21.8441 10.2659C23.3483 11.7701 24.1934 13.8103 24.1934 15.9375Z" fill="white"/>
</svg>
