<svg width="10" height="17" viewBox="0 0 10 17" fill="none" xmlns="http://www.w3.org/2000/svg">
<path d="M0.221086 0.535635C0.0793499 0.65842 0 0.823248 0 0.994886C0 1.16652 0.0793499 1.33135 0.221086 1.45414L8.13971 8.32776L0.221086 15.2C0.0793499 15.3228 0 15.4876 0 15.6593C0 15.8309 0.0793499 15.9957 0.221086 16.1185C0.28998 16.1784 0.372351 16.226 0.463336 16.2585C0.554322 16.291 0.652078 16.3077 0.750836 16.3077C0.849593 16.3077 0.94735 16.291 1.03834 16.2585C1.12932 16.226 1.21169 16.1784 1.28059 16.1185L9.70134 8.80764C9.84923 8.67925 9.93201 8.50705 9.93201 8.32776C9.93201 8.14847 9.84923 7.97627 9.70134 7.84789L1.28059 0.537011C1.21169 0.477138 1.12932 0.429551 1.03834 0.397058C0.94735 0.364565 0.849593 0.347824 0.750836 0.347824C0.652078 0.347824 0.554322 0.364565 0.463336 0.397058C0.372351 0.429551 0.28998 0.477138 0.221086 0.537011V0.535635Z" fill="#716D79"/>
</svg>
